<svg width="132" height="36" fill="none" xmlns="http://www.w3.org/2000/svg"><path d="M14.184 1.134c2.076 0 3.942.318 5.598.954 1.656.636 3.066 1.548 4.23 2.736 1.176 1.176 2.076 2.586 2.7 4.23.624 1.632.936 3.45.936 5.454 0 1.86-.306 3.588-.918 5.184a12.396 12.396 0 0 1-2.646 4.194c-1.14 1.188-2.526 2.118-4.158 2.79-1.62.66-3.444.99-5.472.99-2.088 0-3.966-.318-5.634-.954-1.656-.636-3.072-1.542-4.248-2.718-1.164-1.176-2.052-2.586-2.664-4.23-.612-1.656-.918-3.498-.918-5.526 0-1.836.306-3.552.918-5.148a12.342 12.342 0 0 1 2.628-4.176c1.152-1.188 2.538-2.112 4.158-2.772 1.632-.672 3.462-1.008 5.49-1.008Zm5.004 18.468c0-1.632-.132-3.234-.396-4.806a27.812 27.812 0 0 0-1.062-4.428c-.444-1.38-.954-2.592-1.53-3.636-.564-1.056-1.158-1.878-1.782-2.466-.624-.6-1.248-.9-1.872-.9-.648 0-1.194.222-1.638.666-.444.432-.78 1.08-1.008 1.944-.216.852-.324 1.908-.324 3.168 0 1.632.126 3.24.378 4.824a31.99 31.99 0 0 0 1.062 4.464c.444 1.38.948 2.598 1.512 3.654.576 1.044 1.176 1.866 1.8 2.466.636.588 1.266.882 1.89.882.66 0 1.206-.216 1.638-.648.444-.444.774-1.098.99-1.962.228-.864.342-1.938.342-3.222Zm-4.536 1.206c-.108-.408-.12-.768-.036-1.08.084-.312.306-.522.666-.63.396-.108.714-.054.954.162.24.204.414.498.522.882.456 1.512.942 2.76 1.458 3.744.516.972 1.08 1.734 1.692 2.286.612.54 1.296.918 2.052 1.134.768.228 1.62.342 2.556.342.684 0 1.2-.072 1.548-.216.36-.144.654-.288.882-.432.228-.144.486-.228.774-.252.216-.012.378.036.486.144.108.108.168.276.18.504 0 .156-.024.33-.072.522a3.648 3.648 0 0 1-.252.666l-1.044 2.376c-.192.432-.492.75-.9.954-.396.216-.978.324-1.746.324a7.215 7.215 0 0 1-2.988-.63c-.936-.42-1.818-1.086-2.646-1.998-.816-.912-1.566-2.094-2.25-3.546-.684-1.452-1.296-3.204-1.836-5.256Zm23.52-3.618c0-1.788.234-3.264.702-4.428.48-1.164 1.116-2.028 1.908-2.592.792-.576 1.656-.864 2.592-.864 1.224 0 2.16.372 2.808 1.116.66.744.99 1.872.99 3.384 0 1.536-.312 2.67-.936 3.402-.624.72-1.434 1.08-2.43 1.08-.996 0-1.74-.258-2.232-.774-.492-.516-.744-1.23-.756-2.142v-.756c-.012-.3-.078-.528-.198-.684-.12-.168-.312-.252-.576-.252-.24 0-.456.108-.648.324-.18.204-.324.546-.432 1.026-.108.48-.162 1.128-.162 1.944l-.63.216Zm.198-6.444.432 4.014v8.802c0 .384.06.66.18.828.12.168.372.294.756.378l1.422.27c.324.072.558.186.702.342.144.156.216.378.216.666 0 .3-.102.534-.306.702-.204.168-.504.252-.9.252h-9.936c-.432 0-.744-.084-.936-.252-.18-.168-.27-.402-.27-.702 0-.204.054-.384.162-.54.108-.168.288-.306.54-.414l.432-.162a.73.73 0 0 0 .36-.396c.072-.18.108-.486.108-.918v-9.054c0-.348-.048-.594-.144-.738a.613.613 0 0 0-.414-.306l-.45-.108c-.228-.072-.396-.174-.504-.306a.92.92 0 0 1-.144-.522c0-.252.072-.456.216-.612.144-.156.402-.3.774-.432l4.284-1.53c.744-.288 1.278-.474 1.602-.558.336-.084.6-.126.792-.126.3 0 .528.114.684.342.156.216.27.576.342 1.08Zm19.24-.018v12.87c0 .432.036.744.108.936.072.18.198.312.378.396l.432.18c.252.096.432.228.54.396a.925.925 0 0 1 .162.54c0 .3-.096.534-.288.702-.192.168-.498.252-.918.252h-8.298c-.42 0-.726-.084-.918-.252-.192-.168-.288-.402-.288-.702 0-.204.054-.384.162-.54.108-.168.288-.3.54-.396l.432-.18a.719.719 0 0 0 .378-.396c.072-.192.108-.504.108-.936v-9.09c0-.336-.048-.576-.144-.72a.677.677 0 0 0-.432-.306l-.432-.108c-.228-.072-.396-.174-.504-.306a.953.953 0 0 1-.144-.54c0-.252.066-.45.198-.594.144-.144.402-.288.774-.432l4.41-1.602a12.441 12.441 0 0 1 1.35-.468c.324-.084.618-.126.882-.126.504 0 .882.132 1.134.396.252.264.378.606.378 1.026Zm-4.086-2.934c-1.308 0-2.346-.318-3.114-.954-.768-.636-1.152-1.488-1.152-2.556 0-1.056.384-1.896 1.152-2.52.768-.624 1.806-.936 3.114-.936 1.308 0 2.346.312 3.114.936.768.624 1.152 1.464 1.152 2.52 0 1.068-.384 1.92-1.152 2.556-.768.636-1.806.954-3.114.954Zm15.69 17.658c.684 0 1.194-.15 1.53-.45.336-.3.504-.672.504-1.116 0-.264-.06-.516-.18-.756-.108-.24-.342-.456-.702-.648-.36-.204-.924-.378-1.692-.522-2.148-.396-3.786-.906-4.914-1.53-1.128-.624-1.902-1.35-2.322-2.178-.408-.84-.612-1.782-.612-2.826 0-1.92.666-3.42 1.998-4.5 1.332-1.08 3.276-1.62 5.832-1.62.9 0 1.614.072 2.142.216.54.144.966.288 1.278.432.324.144.606.216.846.216.276 0 .51-.072.702-.216l.612-.432a1.33 1.33 0 0 1 .756-.216.91.91 0 0 1 .612.234c.192.144.342.42.45.828l.918 3.546c.168.552.216.996.144 1.332-.072.324-.276.546-.612.666-.324.132-.612.138-.864.018-.252-.12-.498-.354-.738-.702-.588-.9-1.194-1.638-1.818-2.214-.612-.576-1.248-1.002-1.908-1.278a5.182 5.182 0 0 0-2.052-.414c-.792 0-1.386.156-1.782.468-.384.312-.576.72-.576 1.224 0 .336.084.63.252.882.168.24.504.462 1.008.666.516.204 1.278.408 2.286.612 1.692.324 3.03.78 4.014 1.368.996.576 1.71 1.284 2.142 2.124.432.828.648 1.8.648 2.916 0 1.188-.318 2.226-.954 3.114-.636.888-1.5 1.578-2.592 2.07-1.092.48-2.334.72-3.726.72-.864 0-1.548-.078-2.052-.234a11.523 11.523 0 0 1-1.242-.45c-.324-.156-.624-.234-.9-.234s-.54.078-.792.234c-.252.144-.498.288-.738.432-.24.156-.492.234-.756.234a.806.806 0 0 1-.612-.27c-.156-.168-.276-.468-.36-.9l-.558-3.312c-.096-.552-.102-.96-.018-1.224.084-.276.276-.48.576-.612.324-.132.612-.126.864.018s.51.402.774.774c.876 1.272 1.746 2.178 2.61 2.718.876.528 1.734.792 2.574.792Zm19.01-14.724v1.656l.306.612v18.99c0 .432.036.738.108.918.072.192.192.33.36.414l.45.18c.24.096.414.222.522.378.108.168.162.354.162.558 0 .3-.096.534-.288.702-.18.168-.486.252-.918.252h-8.28c-.42 0-.726-.084-.918-.252-.192-.168-.288-.402-.288-.702 0-.204.054-.39.162-.558.108-.156.288-.282.54-.378l.432-.18c.18-.084.3-.222.36-.414.072-.18.108-.486.108-.918V14.508c0-.336-.048-.576-.144-.72a.613.613 0 0 0-.414-.306l-.45-.108c-.228-.072-.396-.174-.504-.306a.953.953 0 0 1-.144-.54c0-.252.072-.444.216-.576.144-.132.402-.282.774-.45L84.462 9.9c.528-.228.96-.384 1.296-.468.336-.084.642-.126.918-.126.516 0 .9.132 1.152.396.264.264.396.606.396 1.026Zm-.918 4.698-1.134-1.098c.984-1.572 2.082-2.802 3.294-3.69 1.212-.888 2.604-1.332 4.176-1.332 1.428 0 2.694.36 3.798 1.08 1.116.708 1.992 1.704 2.628 2.988.648 1.272.972 2.748.972 4.428 0 1.932-.396 3.63-1.188 5.094-.78 1.452-1.854 2.58-3.222 3.384-1.356.804-2.892 1.206-4.608 1.206-1.404 0-2.616-.288-3.636-.864-1.02-.576-1.896-1.458-2.628-2.646l1.746-1.17c.504.744.99 1.278 1.458 1.602.468.312.978.468 1.53.468.576 0 1.074-.204 1.494-.612.432-.408.762-1.074.99-1.998.24-.936.36-2.178.36-3.726 0-1.404-.12-2.532-.36-3.384-.24-.852-.564-1.47-.972-1.854-.408-.396-.882-.594-1.422-.594-.636 0-1.224.216-1.764.648-.54.432-1.044 1.122-1.512 2.07Zm28.656 7.74-4.032 6.966-8.046-16.794c-.216-.48-.438-.834-.666-1.062a2.921 2.921 0 0 0-.846-.576c-.228-.108-.39-.228-.486-.36-.096-.144-.144-.336-.144-.576 0-.288.102-.516.306-.684.204-.168.486-.252.846-.252h9.702c.348 0 .624.084.828.252a.82.82 0 0 1 .324.684c0 .24-.066.432-.198.576-.12.132-.318.24-.594.324l-.54.162c-.456.12-.726.342-.81.666-.084.324.036.858.36 1.602l3.996 9.072Zm-3.924 5.436.558-1.35.882-1.674 4.41-11.16c.3-.744.402-1.302.306-1.674-.084-.384-.372-.654-.864-.81l-.63-.198c-.264-.084-.462-.204-.594-.36a.96.96 0 0 1-.198-.612c0-.288.102-.516.306-.684.204-.168.48-.252.828-.252h4.968c.36 0 .642.084.846.252.204.168.306.396.306.684 0 .192-.06.366-.18.522-.108.156-.294.3-.558.432-.48.216-.876.498-1.188.846-.312.336-.618.882-.918 1.638L114.756 27.9c-.804 1.98-1.53 3.516-2.178 4.608-.636 1.104-1.338 1.866-2.106 2.286-.756.432-1.722.648-2.898.648-1.656 0-2.982-.45-3.978-1.35-.984-.9-1.476-2.028-1.476-3.384 0-.996.252-1.776.756-2.34.504-.564 1.17-.846 1.998-.846.816 0 1.44.228 1.872.684.432.468.816 1.098 1.152 1.89l.378.864c.168.396.36.72.576.972.216.252.45.378.702.378.228 0 .444-.09.648-.27.204-.18.45-.54.738-1.08.288-.528.654-1.314 1.098-2.358Zm15.555-1.08c-.78 0-1.488-.198-2.124-.594a4.352 4.352 0 0 1-1.512-1.584 4.29 4.29 0 0 1-.558-2.142c0-.78.186-1.488.558-2.124a4.25 4.25 0 0 1 1.512-1.548 4.03 4.03 0 0 1 2.124-.576c.792 0 1.506.192 2.142.576.636.384 1.14.9 1.512 1.548a4.13 4.13 0 0 1 .558 2.124 4.29 4.29 0 0 1-.558 2.142 4.352 4.352 0 0 1-1.512 1.584 3.97 3.97 0 0 1-2.142.594Z" fill="#fff"/></svg>